<svg xmlns="http://www.w3.org/2000/svg" viewBox="0 0 100 125"><path fill="#ffffff" d="M43.359 85.708c-1.112 0-2.182.1-3.588.296-1.859.259-3.771.391-4.771.391v.002c-4 0-5.882-.74-6.648-2.148-.634-1.164-.342-2.742.142-3.889l4.066 1.913 3.052-1.878-14.524-6.741.543 3.563 4.723 2.196c-1.092 1.655-2.578 4.49-2.115 7.158.299 1.726 1.335 3.162 3.079 4.156C30.946 92.791 34.861 94 38.645 94h.001c5.463 0 10.255-2.522 10.255-5.264 0-.875-.54-3.028-5.542-3.028zm-4.713 6.057c-3.438 0-7.013-1.001-10.339-2.895-1.215-.691-1.902-1.574-2.098-2.696a4.613 4.613 0 0 1-.017-1.384c.056.134.12.267.191.398 1.151 2.126 3.911 3.204 8.202 3.204h.001c1.536 0 3.304-.138 5.252-.409 1.316-.183 2.5-.275 3.52-.275 2.65 0 3.542.625 3.542.91.001.961-3.118 3.147-8.254 3.147zM27.033 58.459l14.142 12.28 2.511-5.404-14.142-12.28zM35.76 39.676l14.143 12.28 3.024-6.508-16.324-7.585zM24.083 64.807l14.142 12.28 2.511-5.403-14.142-12.282zM37.787 78.031l-14.142-12.28-3.055 6.573 16.324 7.585zM32.932 45.763l14.142 12.281 2.39-5.144-14.142-12.28zM46.636 58.987l-14.142-12.28-2.512 5.404 14.143 12.28zM77.485 28.19l-9.691 20.858 5.33-1.98 6.286-13.527zM33.955 7.964l-5.331 1.979-6.285 13.528 1.925 5.351zM76.969 25.744L36.158 6.782l-.664.243-10.956 23.579.243.664 40.81 18.962.664-.243 10.956-23.579zM63.69 15.164l-10.882-5.057-3.079 1.878 14.51 6.742z"/></svg>